<svg xmlns="http://www.w3.org/2000/svg" viewBox="0 0 512 512"><path fill="#fff" d="M233.837 42.22a213 213 0 0 0-20.888 3.207l5.957-10.318-20.814-12.017-18.52 32.079a213 213 0 0 0-19.37 8.556l3.089-11.529-23.215-6.221-9.612 35.873a216 216 0 0 0-16.471 13.262V83.099H89.96v37.153a215 215 0 0 0-12.486 17.023l-3.1-11.569-23.215 6.22 9.591 35.793a212 212 0 0 0-7.666 19.707l-5.953-10.311-20.814 12.017 18.53 32.094c-1.105 6.975-1.863 14-2.272 21.05l-8.452-8.452-16.994 16.995 26.217 26.217a213 213 0 0 0 3.207 20.888l-10.318-5.957-12.017 20.814 32.079 18.521a213 213 0 0 0 8.557 19.37l-11.53-3.089-6.22 23.215 35.872 9.611a215 215 0 0 0 13.262 16.471H84.225v24.03h37.154a213 213 0 0 0 17.022 12.49l-11.569 3.1 6.22 23.21 35.794-9.59a213 213 0 0 0 19.706 7.67l-10.31 5.95 12.017 20.82 32.093-18.53c6.903 1.09 13.93 1.85 21.051 2.27l-8.453 8.45 16.995 17 26.218-26.22c7.072-.73 14.041-1.81 20.888-3.21l-5.957 10.32 20.814 12.01 18.52-32.07c6.619-2.54 13.083-5.4 19.37-8.56l-3.089 11.53 23.215 6.22 9.612-35.87a217 217 0 0 0 16.471-13.26v12.01h24.033v-37.155a215 215 0 0 0 12.486-17.023l3.1 11.57 23.215-6.221-9.591-35.793a212 212 0 0 0 7.666-19.707l5.953 10.311 20.814-12.017-18.53-32.094c1.105-6.975 1.863-14 2.272-21.05l8.452 8.452 16.994-16.994-26.217-26.218a213 213 0 0 0-3.207-20.888l10.318 5.957 12.017-20.814-32.079-18.521a213 213 0 0 0-8.557-19.37l11.53 3.09 6.22-23.215-35.872-9.612a215 215 0 0 0-13.262-16.471h12.013V88.833h-37.154a215 215 0 0 0-17.022-12.486l11.569-3.1-6.22-23.215-35.794 9.591a212 212 0 0 0-19.706-7.665l10.31-5.953-12.017-20.814-32.093 18.53c-6.975-1.105-14-1.863-21.051-2.272l8.453-8.452-16.995-16.995zm53.545 18.147 17.03 29.497 20.814-12.017-5.422-9.392a196 196 0 0 1 16.851 6.661l8.815 32.901 23.215-6.221-2.787-10.4a197 197 0 0 1 14.533 10.793v33.988h24.034v-10.734a198 198 0 0 1 11.247 14.141l-8.8 32.843 23.215 6.22 2.799-10.448a196 196 0 0 1 7.219 16.588l-17.036 29.508 20.814 12.017 5.417-9.383a196 196 0 0 1 2.651 17.926l-24.074 24.074 16.995 16.994 7.635-7.635a197 197 0 0 1-2.04 17.968l-29.497 17.03 12.017 20.814 9.392-5.423a196 196 0 0 1-6.661 16.851l-32.901 8.816 6.22 23.215 10.401-2.787a198 198 0 0 1-10.793 14.533h-33.989v24.035h10.735a201 201 0 0 1-14.141 11.25l-32.843-8.8-6.221 23.21 10.448 2.8a197 197 0 0 1-16.587 7.22l-29.509-17.04-12.016 20.82 9.383 5.41a196 196 0 0 1-17.926 2.66l-24.074-24.08-16.995 17 7.636 7.63c-6.067-.41-12.06-1.09-17.968-2.04l-17.03-29.5-20.814 12.02 5.422 9.39a194 194 0 0 1-16.851-6.66l-8.815-32.9-23.215 6.22 2.787 10.4a197 197 0 0 1-14.533-10.79v-33.99h-24.034v10.735a198 198 0 0 1-11.247-14.142l8.8-32.843-23.215-6.22-2.799 10.448a196 196 0 0 1-7.219-16.588l17.036-29.508-20.814-12.017-5.417 9.383a196 196 0 0 1-2.651-17.926l24.074-24.073-16.995-16.995-7.635 7.636a198 198 0 0 1 2.04-17.969l29.497-17.03-12.017-20.814-9.392 5.423a196 196 0 0 1 6.661-16.851l32.901-8.816-6.22-23.215-10.401 2.787a198 198 0 0 1 10.793-14.533h33.989v-24.033h-10.735a198 198 0 0 1 14.141-11.248l32.843 8.8 6.221-23.214-10.448-2.8c5.415-2.66 10.95-5.07 16.587-7.219l29.509 17.037 12.016-20.814-9.383-5.417a196 196 0 0 1 17.926-2.651l24.074 24.073 16.995-16.994-7.636-7.635a197 197 0 0 1 17.968 2.04M234.76 322.014c9.811-43.885 38.621-40.679 60.493-66.787l36.308 63.14-36.235 51.053-6.499-26.082 11.113-24.658-23.562-5.253-7.452 78.862-20.618 8.851zm-14.773-133.988c4.776 4.695 10.595 8.094 17.135 9.701 12.408 3.049 25.509-.823 35.785-9.633l10.101.139 2.076 18.073-60.403 74.459-3.621-45.968-55.628 34.313 3.54 12.232-16.01 4.633-26.838-92.753 16.01-4.633 16.17 55.887zm123.764 36.571 10.279-57.015 16.403 2.958-17.267 95.771-16.402-2.957 2.876-15.957-32.83-16.379s5.382-25.755-8.058-41.792zm-87.843-103.333c12.176 2.992 17.669 18.233 13.98 33.248s-15.619 25.975-27.796 22.983c-12.176-2.991-17.669-18.233-13.98-33.247 3.689-15.015 15.619-25.976 27.796-22.984"/></svg>